<?xml version="1.0" encoding="UTF-8"?>
<svg width="24px" height="24px" viewBox="0 0 24 24" version="1.1" xmlns="http://www.w3.org/2000/svg" xmlns:xlink="http://www.w3.org/1999/xlink">
    <!-- Generator: Sketch 64 (93537) - https://sketch.com -->
    <title>Page 1</title>
    <desc>Created with Sketch.</desc>
    <g id="Page-1" stroke="none" stroke-width="1" fill="none" fill-rule="evenodd">
        <g id="Main" transform="translate(-87.000000, -954.000000)" fill="#fafaff" fill-rule="nonzero">
            <g id="5sec---Back" transform="translate(87.000000, 954.000000)">
                <path d="M11.9999714,23.6249937 C18.4140491,23.6249937 23.6149187,18.4303498 23.624958,12.0186066 C23.6349229,5.62544864 18.4302539,0.395099175 12.0371417,0.375036912 C7.74557174,0.361682506 3.99356653,2.67411596 1.96874531,6.12308234 L1.96874531,0.937547833 C1.96874531,0.626910146 1.71688433,0.375036912 1.40624665,0.375036912 L0.937497765,0.375036912 C0.626860078,0.375036912 0.374999106,0.626910146 0.374999106,0.937547833 L0.374999106,8.43752995 C0.374999106,8.74816764 0.626860078,9.00002861 0.937497765,9.00002861 L8.43747988,9.00002861 C8.74811757,9.00002861 8.99997854,8.74816764 8.99997854,8.43752995 L8.99997854,7.96878107 C8.99997854,7.65814338 8.74811757,7.40628241 8.43747988,7.40628241 L3.08019285,7.40628241 C4.74667753,4.17553145 8.11581012,1.96879537 11.9999714,1.96879537 C17.5625649,1.96879537 22.0311975,6.48077802 22.0311975,12.0000215 C22.0311975,17.562615 17.5192148,22.0312475 11.9999714,22.0312475 C9.41878553,22.0312475 7.06790002,21.0580443 5.29173543,19.4594916 C5.06990368,19.2598156 4.73024385,19.2697032 4.51916952,19.4807775 L4.18779519,19.8121519 C3.95941744,20.0405296 3.97072418,20.4128279 4.21040866,20.6293039 C6.27175934,22.4912532 9.00345754,23.6249937 11.9999714,23.6249937 Z" id=""></path>
                <path d="M12.39,17.066 C14.271,17.066 15.184,16.043 15.184,14.734 C15.184,13.37 14.304,12.457 11.983,12.457 L10.993,12.457 L11.257,10.004 L14.777,10.004 L14.777,9.3 L10.564,9.3 L10.168,13.161 L11.807,13.161 C13.765,13.161 14.381,13.777 14.381,14.767 C14.381,15.702 13.688,16.34 12.379,16.34 C11.389,16.34 10.509,15.966 10.014,15.449 L9.629,16.076 C10.223,16.681 11.279,17.066 12.39,17.066 Z" id="5"></path>
            </g>
        </g>
    </g>
</svg>
