<?xml version="1.0" encoding="UTF-8"?>
<svg width="24px" height="24px" viewBox="0 0 24 24" version="1.1" xmlns="http://www.w3.org/2000/svg" xmlns:xlink="http://www.w3.org/1999/xlink">
    <!-- Generator: Sketch 64 (93537) - https://sketch.com -->
    <title>5sec - Forward</title>
    <desc>Created with Sketch.</desc>
    <g id="Page-1" stroke="none" stroke-width="1" fill="none" fill-rule="evenodd">
        <g id="Main" transform="translate(-210.000000, -954.000000)" fill="#fafaff" fill-rule="nonzero">
            <g id="5sec---Forward" transform="translate(210.000000, 954.000000)">
                <path d="M11.9999714,23.6249937 C14.9964852,23.6249937 17.7281834,22.4912532 19.7895341,20.6293039 C20.0292186,20.4128279 20.0405253,20.0405296 19.8121476,19.8121519 L19.4807733,19.4807775 C19.2696989,19.2697032 18.9300391,19.2598156 18.7082073,19.4594916 C16.9320428,21.0580443 14.5811573,22.0312475 11.9999714,22.0312475 C6.48072796,22.0312475 1.96874531,17.562615 1.96874531,12.0000215 C1.96874531,6.48077802 6.43737784,1.96879537 11.9999714,1.96879537 C15.8841327,1.96879537 19.2532653,4.17553145 20.9197499,7.40628241 L15.5624629,7.40628241 C15.2518252,7.40628241 14.9999642,7.65814338 14.9999642,7.96878107 L14.9999642,8.43752995 C14.9999642,8.74816764 15.2518252,9.00002861 15.5624629,9.00002861 L23.062445,9.00002861 C23.3730827,9.00002861 23.6249437,8.74816764 23.6249437,8.43752995 L23.6249437,0.937547833 C23.6249437,0.626910146 23.3730827,0.375036912 23.062445,0.375036912 L22.5936961,0.375036912 C22.2830584,0.375036912 22.0311975,0.626910146 22.0311975,0.937547833 L22.0311975,6.12308234 C20.0063763,2.67411596 16.254371,0.361682506 11.9628011,0.375036912 C5.56968887,0.395099175 0.365019882,5.62544864 0.37498478,12.0186066 C0.385024106,18.4303498 5.58589366,23.6249937 11.9999714,23.6249937 Z" id=""></path>
                <path d="M10.39,17.066 C12.271,17.066 13.184,16.043 13.184,14.734 C13.184,13.37 12.304,12.457 9.983,12.457 L8.993,12.457 L9.257,10.004 L12.777,10.004 L12.777,9.3 L8.564,9.3 L8.168,13.161 L9.807,13.161 C11.765,13.161 12.381,13.777 12.381,14.767 C12.381,15.702 11.688,16.34 10.379,16.34 C9.389,16.34 8.509,15.966 8.014,15.449 L7.629,16.076 C8.223,16.681 9.279,17.066 10.39,17.066 Z" id="5"></path>
            </g>
        </g>
    </g>
</svg>
