<?xml version="1.0" encoding="UTF-8"?>
<svg width="57px" height="57px" viewBox="0 0 57 57" version="1.1" xmlns="http://www.w3.org/2000/svg" xmlns:xlink="http://www.w3.org/1999/xlink">
    <!-- Generator: Sketch 64 (93537) - https://sketch.com -->
    <title>Page 1</title>
    <desc>Created with Sketch.</desc>
    <g id="Page-1" stroke="none" stroke-width="1" fill="none" fill-rule="evenodd">
        <g id="Main" transform="translate(-13.000000, -13.000000)">
            <g id="Help" transform="translate(13.000000, 13.000000)">
                <circle id="Oval" fill="#F54F74" cx="28.5" cy="28.5" r="28.5"></circle>
                <path d="M30.6985066,32.1250116 C31.3198277,32.1250116 31.8235039,31.6213355 31.8235039,31.0000143 L31.8235039,30.7293851 C31.8235039,28.7203567 37.6954076,28.6366777 37.6954076,23.2000146 C37.6954076,19.1057861 33.4485153,16.0000501 29.4697345,16.0000501 C25.7282121,16.0000501 23.3048169,17.5330054 21.4022183,20.2669009 C21.0570654,20.7628408 21.1634952,21.4428014 21.6449241,21.807867 L23.6670445,23.341097 C24.1532341,23.7097332 24.8450965,23.6235365 25.2257718,23.1466395 C26.3999329,21.6756652 27.2709177,20.8287129 29.1049893,20.8287129 C30.547033,20.8287129 32.3307049,21.7567807 32.3307049,23.1551539 C32.3307049,24.2123108 31.458072,24.7552172 30.0342015,25.5534636 C28.3737136,26.4844153 26.1764074,27.6429666 26.1764074,30.5411989 L26.1764074,31.0000143 C26.1764074,31.6213355 26.6800836,32.1250116 27.3014047,32.1250116 L30.6985066,32.1250116 Z M28.9999785,39.9999928 C30.7904253,39.9999928 32.2470716,38.5433465 32.2470716,36.7528998 C32.2470716,34.9624988 30.7904253,33.5058982 28.9999785,33.5058982 C27.2095318,33.5058982 25.7528855,34.9625445 25.7528855,36.7529913 C25.7528855,38.5433465 27.2095318,39.9999928 28.9999785,39.9999928 Z" id="" fill="#FFFFFF" fill-rule="nonzero"></path>
            </g>
        </g>
    </g>
</svg>
