<?xml version="1.0" encoding="UTF-8"?>
<svg width="57px" height="57px" viewBox="0 0 57 57" version="1.1" xmlns="http://www.w3.org/2000/svg" xmlns:xlink="http://www.w3.org/1999/xlink">
    <!-- Generator: Sketch 64 (93537) - https://sketch.com -->
    <title>Page 1</title>
    <desc>Created with Sketch.</desc>
    <g id="Page-1" stroke="none" stroke-width="1" fill="none" fill-rule="evenodd">
        <g id="Main" transform="translate(-13.000000, -13.000000)">
            <g id="Enlarge" transform="translate(13.000000, 13.000000)">
                <circle id="Oval" fill="#F54F74" cx="28.5" cy="28.5" r="28.5"></circle>
                <path d="M38.749941,38.4999964 C39.1639415,38.4999964 39.4999392,38.1639987 39.4999392,37.7499982 L39.4999392,36.2500018 C39.4999392,35.8360013 39.1639415,35.5000036 38.749941,35.5000036 L36.8749455,35.5000036 L36.8749455,21.2500376 L40.9999356,21.2500376 L40.9999356,22.750034 C40.9999356,23.1640345 41.3359334,23.5000322 41.7499338,23.5000322 L43.2499303,23.5000322 C43.6639307,23.5000322 43.9999285,23.1640345 43.9999285,22.750034 L43.9999285,18.2500447 C43.9999285,17.8360442 43.6639307,17.5000465 43.2499303,17.5000465 L26.7499696,17.5000465 C26.3359691,17.5000465 25.9999714,17.8360442 25.9999714,18.2500447 L25.9999714,22.750034 C25.9999714,23.1640345 26.3359691,23.5000322 26.7499696,23.5000322 L28.249966,23.5000322 C28.6639665,23.5000322 28.9999714,23.1640345 28.9999714,22.750034 L28.9999714,21.2500376 L33.1249544,21.2500376 L33.1249544,35.5000036 L31.2499589,35.5000036 C30.8359584,35.5000036 30.4999607,35.8360013 30.4999607,36.2500018 L30.4999607,37.7499982 C30.4999607,38.1639987 30.8359584,38.4999964 31.2499589,38.4999964 L38.749941,38.4999964 Z M24.499975,38.4999964 C24.9139754,38.4999964 25.2499732,38.1639987 25.2499732,37.7499982 L25.2499732,36.2500018 C25.2499732,35.8360013 24.9139754,35.5000036 24.499975,35.5000036 L23.3749776,35.5000036 L23.3749776,29.500025 L25.9999714,29.500025 L25.9999714,30.2500161 C25.9999714,30.6640166 26.3359691,31.0000143 26.7499696,31.0000143 L28.249966,31.0000143 C28.6639665,31.0000143 28.9999642,30.6640166 28.9999642,30.2500161 L28.9999642,27.2500232 C28.9999642,26.8360228 28.6639665,26.500025 28.249966,26.500025 L14.7499982,26.500025 C14.3359977,26.500025 14,26.8360228 14,27.2500232 L14,30.2500161 C14,30.6640166 14.3359977,31.0000143 14.7499982,31.0000143 L16.2499946,31.0000143 C16.6639951,31.0000143 17,30.6640166 17,30.2500161 L17,29.500025 L19.6249866,29.500025 L19.6249866,35.5000036 L18.4999893,35.5000036 C18.0859888,35.5000036 17.7499911,35.8360013 17.7499911,36.2500018 L17.7499911,37.7499982 C17.7499911,38.1639987 18.0859888,38.4999964 18.4999893,38.4999964 L24.499975,38.4999964 Z" id="" fill="#FFFFFF" fill-rule="nonzero"></path>
            </g>
        </g>
    </g>
</svg>
